# xmcd
#
# Track frame offsets:
#	150
#	18415
#	38153
#	57784
#	72759
#	90421
#	109291
#	129317
#	146179
#	165492
#	188272
#
# Disc length: 2806 seconds
#
# Revision: 24
# Processed by: cddbd v1.5.2PL0 Copyright (c) Steve Scherf et al.
# Submitted via: audiograbber 1.83.01
#
DISCID=880af40b
DTITLE=Rihanna - Loud
DYEAR=2010
DGENRE=R&B
TTITLE0=S and M
TTITLE1=What´s My Name? (feat. Drake)
TTITLE2=Cheers (Drink To That)
TTITLE3=Fading
TTITLE4=Only Girl (In The World)
TTITLE5=California King Bed
TTITLE6=Man Down
TTITLE7=Raining Men (feat. Nicki Minaj)
TTITLE8=Complicated
TTITLE9=Skin
TTITLE10=Love The Way You Lie (Part II) (feat. Eminem)
EXTD=by Diddl
EXTT0=
EXTT1=
EXTT2=
EXTT3=
EXTT4=
EXTT5=
EXTT6=
EXTT7=
EXTT8=
EXTT9=
EXTT10=
PLAYORDER=
